<svg width="24" height="24" viewBox="0 0 24 24" fill="none" xmlns="http://www.w3.org/2000/svg">
<path d="M2 6C2 4.59987 2 3.8998 2.27248 3.36502C2.51217 2.89462 2.89462 2.51217 3.36502 2.27248C3.8998 2 4.59987 2 6 2C7.40013 2 8.1002 2 8.63498 2.27248C9.10538 2.51217 9.48783 2.89462 9.72752 3.36502C10 3.8998 10 4.59987 10 6C10 7.40013 10 8.1002 9.72752 8.63498C9.48783 9.10538 9.10538 9.48783 8.63498 9.72752C8.1002 10 7.40013 10 6 10C4.59987 10 3.8998 10 3.36502 9.72752C2.89462 9.48783 2.51217 9.10538 2.27248 8.63498C2 8.1002 2 7.40013 2 6Z" stroke="#F8FBFC" stroke-width="1.5"/>
<path d="M2 18C2 16.5999 2 15.8998 2.27248 15.365C2.51217 14.8946 2.89462 14.5122 3.36502 14.2725C3.8998 14 4.59987 14 6 14C7.40013 14 8.1002 14 8.63498 14.2725C9.10538 14.5122 9.48783 14.8946 9.72752 15.365C10 15.8998 10 16.5999 10 18C10 19.4001 10 20.1002 9.72752 20.635C9.48783 21.1054 9.10538 21.4878 8.63498 21.7275C8.1002 22 7.40013 22 6 22C4.59987 22 3.8998 22 3.36502 21.7275C2.89462 21.4878 2.51217 21.1054 2.27248 20.635C2 20.1002 2 19.4001 2 18Z" stroke="#F8FBFC" stroke-width="1.5"/>
<path d="M14 18C14 16.5999 14 15.8998 14.2725 15.365C14.5122 14.8946 14.8946 14.5122 15.365 14.2725C15.8998 14 16.5999 14 18 14C19.4001 14 20.1002 14 20.635 14.2725C21.1054 14.5122 21.4878 14.8946 21.7275 15.365C22 15.8998 22 16.5999 22 18C22 19.4001 22 20.1002 21.7275 20.635C21.4878 21.1054 21.1054 21.4878 20.635 21.7275C20.1002 22 19.4001 22 18 22C16.5999 22 15.8998 22 15.365 21.7275C14.8946 21.4878 14.5122 21.1054 14.2725 20.635C14 20.1002 14 19.4001 14 18Z" stroke="#F8FBFC" stroke-width="1.5"/>
<mask id="path-4-inside-1_2437_3262" fill="white">
<path d="M20.6657 5.14116L17.3579 8.449L18.4185 9.50966L21.7264 6.20182L20.6657 5.14116ZM15.5509 6.64205L18.8587 3.33421L17.7981 2.27355L14.4902 5.58138L15.5509 6.64205ZM15.1908 9.1223C15.0154 9.15981 14.8752 9.18973 14.7547 9.21212C14.6332 9.23472 14.5535 9.2454 14.4995 9.24884C14.444 9.25237 14.4478 9.24579 14.4824 9.25471C14.5295 9.26685 14.5935 9.29719 14.6481 9.35178L13.5875 10.4124C13.9112 10.7362 14.3157 10.7636 14.5947 10.7458C14.8602 10.7289 15.1838 10.6577 15.5044 10.5891L15.1908 9.1223ZM13.4108 8.49546C13.3422 8.8161 13.271 9.13973 13.2541 9.40523C13.2363 9.68419 13.2637 10.0887 13.5875 10.4124L14.6481 9.35178C14.7027 9.40637 14.733 9.47039 14.7452 9.51747C14.7541 9.55207 14.7475 9.55591 14.7511 9.50044C14.7545 9.44641 14.7652 9.36674 14.7878 9.24519C14.8102 9.12473 14.8401 8.98455 14.8776 8.80911L13.4108 8.49546ZM20.6657 3.33421C21.0332 3.7017 21.1083 3.78597 21.1466 3.85229L22.4457 3.10229C22.2838 2.82184 22.0256 2.57275 21.7264 2.27355L20.6657 3.33421ZM21.7264 6.20182C22.0256 5.90261 22.2838 5.65353 22.4457 5.37307L21.1466 4.62307C21.1083 4.6894 21.0332 4.77367 20.6657 5.14116L21.7264 6.20182ZM21.1466 3.85229C21.2843 4.09077 21.2843 4.38459 21.1466 4.62307L22.4457 5.37307C22.8513 4.67049 22.8513 3.80488 22.4457 3.10229L21.1466 3.85229ZM21.7264 2.27355C21.4271 1.97434 21.1781 1.71615 20.8976 1.55423L20.1476 2.85326C20.2139 2.89156 20.2982 2.96671 20.6657 3.33421L21.7264 2.27355ZM18.8587 3.33421C19.2262 2.96672 19.3105 2.89156 19.3768 2.85326L18.6268 1.55423C18.3464 1.71615 18.0973 1.97434 17.7981 2.27355L18.8587 3.33421ZM20.8976 1.55423C20.195 1.14859 19.3294 1.14859 18.6268 1.55423L19.3768 2.85326C19.6153 2.71557 19.9091 2.71557 20.1476 2.85326L20.8976 1.55423ZM17.3579 8.449C17.1623 8.64453 16.8951 8.77096 16.5154 8.8679C16.3252 8.91646 16.1223 8.954 15.8962 8.99307C15.6789 9.03061 15.4302 9.07112 15.1908 9.1223L15.5044 10.5891C15.7062 10.546 15.913 10.5124 16.1516 10.4712C16.3813 10.4315 16.6345 10.3856 16.8865 10.3213C17.3913 10.1924 17.9532 9.97497 18.4185 9.50966L17.3579 8.449ZM14.8776 8.80911C14.9288 8.56974 14.9693 8.32097 15.0068 8.1037C15.0459 7.87757 15.0834 7.67468 15.132 7.48447C15.2289 7.10477 15.3554 6.83758 15.5509 6.64205L14.4902 5.58138C14.0249 6.0467 13.8075 6.60863 13.6786 7.11341C13.6143 7.36544 13.5684 7.61864 13.5287 7.84832C13.4875 8.08687 13.4539 8.29366 13.4108 8.49546L14.8776 8.80911Z"/>
</mask>
<path d="M20.6657 5.14116L17.3579 8.449L18.4185 9.50966L21.7264 6.20182L20.6657 5.14116ZM15.5509 6.64205L18.8587 3.33421L17.7981 2.27355L14.4902 5.58138L15.5509 6.64205ZM15.1908 9.1223C15.0154 9.15981 14.8752 9.18973 14.7547 9.21212C14.6332 9.23472 14.5535 9.2454 14.4995 9.24884C14.444 9.25237 14.4478 9.24579 14.4824 9.25471C14.5295 9.26685 14.5935 9.29719 14.6481 9.35178L13.5875 10.4124C13.9112 10.7362 14.3157 10.7636 14.5947 10.7458C14.8602 10.7289 15.1838 10.6577 15.5044 10.5891L15.1908 9.1223ZM13.4108 8.49546C13.3422 8.8161 13.271 9.13973 13.2541 9.40523C13.2363 9.68419 13.2637 10.0887 13.5875 10.4124L14.6481 9.35178C14.7027 9.40637 14.733 9.47039 14.7452 9.51747C14.7541 9.55207 14.7475 9.55591 14.7511 9.50044C14.7545 9.44641 14.7652 9.36674 14.7878 9.24519C14.8102 9.12473 14.8401 8.98455 14.8776 8.80911L13.4108 8.49546ZM20.6657 3.33421C21.0332 3.7017 21.1083 3.78597 21.1466 3.85229L22.4457 3.10229C22.2838 2.82184 22.0256 2.57275 21.7264 2.27355L20.6657 3.33421ZM21.7264 6.20182C22.0256 5.90261 22.2838 5.65353 22.4457 5.37307L21.1466 4.62307C21.1083 4.6894 21.0332 4.77367 20.6657 5.14116L21.7264 6.20182ZM21.1466 3.85229C21.2843 4.09077 21.2843 4.38459 21.1466 4.62307L22.4457 5.37307C22.8513 4.67049 22.8513 3.80488 22.4457 3.10229L21.1466 3.85229ZM21.7264 2.27355C21.4271 1.97434 21.1781 1.71615 20.8976 1.55423L20.1476 2.85326C20.2139 2.89156 20.2982 2.96671 20.6657 3.33421L21.7264 2.27355ZM18.8587 3.33421C19.2262 2.96672 19.3105 2.89156 19.3768 2.85326L18.6268 1.55423C18.3464 1.71615 18.0973 1.97434 17.7981 2.27355L18.8587 3.33421ZM20.8976 1.55423C20.195 1.14859 19.3294 1.14859 18.6268 1.55423L19.3768 2.85326C19.6153 2.71557 19.9091 2.71557 20.1476 2.85326L20.8976 1.55423ZM17.3579 8.449C17.1623 8.64453 16.8951 8.77096 16.5154 8.8679C16.3252 8.91646 16.1223 8.954 15.8962 8.99307C15.6789 9.03061 15.4302 9.07112 15.1908 9.1223L15.5044 10.5891C15.7062 10.546 15.913 10.5124 16.1516 10.4712C16.3813 10.4315 16.6345 10.3856 16.8865 10.3213C17.3913 10.1924 17.9532 9.97497 18.4185 9.50966L17.3579 8.449ZM14.8776 8.80911C14.9288 8.56974 14.9693 8.32097 15.0068 8.1037C15.0459 7.87757 15.0834 7.67468 15.132 7.48447C15.2289 7.10477 15.3554 6.83758 15.5509 6.64205L14.4902 5.58138C14.0249 6.0467 13.8075 6.60863 13.6786 7.11341C13.6143 7.36544 13.5684 7.61864 13.5287 7.84832C13.4875 8.08687 13.4539 8.29366 13.4108 8.49546L14.8776 8.80911Z" fill="#F8FBFC"/>
<path d="M14.8776 8.80911L14.7731 9.29806L14.9822 8.32016L14.8776 8.80911ZM14.4902 5.58138L14.8438 5.2278L14.1367 5.93494L14.4902 5.58138ZM22.4457 3.10229L22.6957 3.5353L22.1957 2.66927L22.4457 3.10229ZM20.6657 5.14116L21.0193 4.7876L20.3122 5.4947L20.6657 5.14116ZM22.4457 5.37307L22.1957 5.80609L22.6957 4.94006L22.4457 5.37307ZM15.8366 9.75119L15.6798 9.01777L14.7019 9.22683L14.8587 9.96025L15.8366 9.75119ZM14.0397 9.14123L14.7731 9.29806L14.9822 8.32016L14.2488 8.16333L14.0397 9.14123ZM15.3742 5.75813L14.8438 5.2278L14.1367 5.93496L14.6671 6.46529L15.3742 5.75813ZM17.5347 9.33287L18.065 9.8632L18.7721 9.15612L18.2418 8.62579L17.5347 9.33287ZM22.0462 3.9103L22.6957 3.5353L22.1957 2.66928L21.5462 3.04428L22.0462 3.9103ZM21.5496 5.31795L21.0193 4.78762L20.3122 5.4947L20.8425 6.02503L21.5496 5.31795ZM21.5462 5.43108L22.1957 5.80608L22.6957 4.94006L22.0462 4.56506L21.5462 5.43108ZM20.9556 2.45375L21.3306 1.80423L20.4646 1.30423L20.0896 1.95375L20.9556 2.45375ZM17.9749 3.15742L18.5052 3.68775L19.2123 2.98067L18.682 2.45034L17.9749 3.15742ZM19.4348 1.95375L19.0598 1.30423L18.1938 1.80423L18.5688 2.45375L19.4348 1.95375ZM17.0044 8.80254L18.065 9.8632L18.7721 9.15612L17.7115 8.09546L17.0044 8.80254ZM22.08 5.84826L21.0193 4.7876L20.3122 5.49472L21.3729 6.55538L22.08 5.84826ZM19.2123 2.98067L18.1517 1.92001L17.4446 2.62709L18.5052 3.68775L19.2123 2.98067ZM14.1367 5.93494L15.1974 6.99561L15.9045 6.28849L14.8438 5.22782L14.1367 5.93494ZM14.2946 8.99823L13.234 10.0589L13.9411 10.766L15.0017 9.70533L14.2946 8.99823ZM15.9934 10.4846L15.6798 9.01776L14.7019 9.22684L15.0155 10.6936L15.9934 10.4846ZM14.9822 8.32016L13.5154 8.00651L13.3063 8.98441L14.7731 9.29806L14.9822 8.32016ZM21.3966 4.28531L22.6957 3.53531L22.1957 2.66927L20.8966 3.41927L21.3966 4.28531ZM21.3729 1.91999L20.3122 2.98065L21.0193 3.68777L22.08 2.62711L21.3729 1.91999ZM22.6957 4.94005L21.3966 4.19005L20.8966 5.05609L22.1957 5.80609L22.6957 4.94005ZM20.4646 1.30423L19.7146 2.60326L20.5806 3.10326L21.3306 1.80423L20.4646 1.30423ZM19.8098 2.60326L19.0598 1.30423L18.1938 1.80423L18.9438 3.10326L19.8098 2.60326ZM15.1908 9.1223L14.9818 8.1444L14.9817 8.14441L15.1908 9.1223ZM14.8776 8.80911L13.8997 8.59995L13.8997 8.60008L14.8776 8.80911ZM14.4902 5.58138L13.7831 4.87427L13.7831 4.87429L14.4902 5.58138ZM18.4185 9.50966L17.7114 8.80255L17.7114 8.80256L18.4185 9.50966ZM22.4457 3.10229L21.5797 3.60225L21.5797 3.60225L22.4457 3.10229ZM20.6657 5.14116L19.9586 4.43404L19.9586 4.43406L20.6657 5.14116ZM22.4457 5.37307L21.5797 4.8731L21.5797 4.87312L22.4457 5.37307ZM20.8976 1.55423L20.3976 2.42026L20.3977 2.42029L20.8976 1.55423ZM18.8587 3.33421L18.1516 2.62709L18.1516 2.62711L18.8587 3.33421ZM18.6268 1.55423L18.1268 0.688201L18.1268 0.688246L18.6268 1.55423ZM17.3579 8.449L18.0649 9.15623L18.065 9.1561L17.3579 8.449ZM21.7264 6.20182L22.4335 6.90893L22.4335 6.90892L21.7264 6.20182ZM15.5509 6.64205L14.8438 5.93495L14.8438 5.935L15.5509 6.64205ZM17.7981 2.27355L18.5052 2.98066L18.5052 2.98064L17.7981 2.27355ZM14.7547 9.21212L14.572 8.22895L14.5719 8.22898L14.7547 9.21212ZM14.4995 9.24884L14.563 10.2468L14.5631 10.2468L14.4995 9.24884ZM14.4824 9.25471L14.2328 10.223L14.2328 10.2231L14.4824 9.25471ZM13.5875 10.4124L14.2947 9.7054L14.2945 9.70518L13.5875 10.4124ZM14.5947 10.7458L14.5312 9.74782L14.5311 9.74783L14.5947 10.7458ZM15.5044 10.5891L15.2956 9.61116L15.2952 9.61123L15.5044 10.5891ZM13.4108 8.49546L14.3887 8.70467L14.3888 8.70433L13.4108 8.49546ZM13.2541 9.40523L14.2521 9.46891L14.2521 9.46875L13.2541 9.40523ZM14.7452 9.51747L15.7137 9.26835L15.7133 9.26662L14.7452 9.51747ZM14.7511 9.50044L15.749 9.5652L15.7492 9.56324L14.7511 9.50044ZM14.7878 9.24519L13.8047 9.06237L13.8047 9.06239L14.7878 9.24519ZM20.6657 3.33421L19.9586 4.04132L19.9586 4.04133L20.6657 3.33421ZM21.1466 3.85229L22.0126 3.35225L22.0126 3.35219L21.1466 3.85229ZM21.7264 2.27355L22.4335 1.56644L22.4334 1.56634L21.7264 2.27355ZM21.1466 4.62307L22.0126 5.12311L22.0126 5.12311L21.1466 4.62307ZM20.1476 2.85326L20.6478 1.98736L20.6476 1.98722L20.1476 2.85326ZM19.3768 2.85326L18.8769 1.98722L18.8766 1.98736L19.3768 2.85326ZM16.5154 8.8679L16.2681 7.89898L16.2681 7.89898L16.5154 8.8679ZM15.8962 8.99307L16.0665 9.97847L16.0665 9.97847L15.8962 8.99307ZM16.1516 10.4712L16.3218 11.4566L16.3219 11.4566L16.1516 10.4712ZM16.8865 10.3213L17.1338 11.2903L17.1339 11.2902L16.8865 10.3213ZM15.0068 8.1037L14.0215 7.93332L14.0214 7.93362L15.0068 8.1037ZM15.132 7.48447L16.1009 7.73202L16.101 7.73175L15.132 7.48447ZM13.6786 7.11341L12.7097 6.86599L12.7097 6.8662L13.6786 7.11341ZM13.5287 7.84832L12.5433 7.678L12.5433 7.67813L13.5287 7.84832ZM19.9586 4.43406L16.6508 7.7419L18.065 9.1561L21.3728 5.84826L19.9586 4.43406ZM19.1256 10.2168L22.4335 6.90893L21.0193 5.49471L17.7114 8.80255L19.1256 10.2168ZM16.258 7.34915L19.5658 4.04131L18.1516 2.62711L14.8438 5.93495L16.258 7.34915ZM17.091 1.56644L13.7831 4.87427L15.1973 6.28849L18.5052 2.98066L17.091 1.56644ZM14.9817 8.14441C14.8023 8.18279 14.6765 8.20954 14.572 8.22895L14.9374 10.1953C15.0739 10.1699 15.2286 10.1368 15.4 10.1002L14.9817 8.14441ZM14.5719 8.22898C14.5213 8.23839 14.4857 8.24413 14.4617 8.24753C14.4369 8.25103 14.4302 8.25123 14.436 8.25086L14.5631 10.2468C14.6764 10.2396 14.8019 10.2205 14.9376 10.1953L14.5719 8.22898ZM14.4361 8.25086C14.4411 8.25054 14.4512 8.25004 14.4658 8.25C14.4732 8.24998 14.4815 8.25007 14.4906 8.25035C14.4952 8.25048 14.4997 8.25066 14.504 8.25086C14.5082 8.25105 14.5125 8.25128 14.5105 8.25118C14.5101 8.25116 14.5092 8.25111 14.5081 8.25105C14.5071 8.251 14.505 8.25089 14.5023 8.25077C14.5001 8.25067 14.4945 8.25042 14.4873 8.2502C14.4868 8.25019 14.4603 8.24921 14.4275 8.25018C14.4171 8.25054 14.3914 8.2519 14.3761 8.25303C14.3515 8.25533 14.2816 8.26525 14.2366 8.27435C14.1307 8.30448 13.7169 8.57729 13.5165 8.90988C13.4811 9.46814 13.8804 10.0667 14.026 10.1521C14.082 10.1768 14.1684 10.2072 14.1976 10.2155C14.2152 10.2201 14.2444 10.2269 14.256 10.2293C14.278 10.2339 14.2954 10.2366 14.3017 10.2376C14.3163 10.2399 14.3277 10.2414 14.3303 10.2417C14.3347 10.2423 14.3382 10.2427 14.3397 10.2428C14.3428 10.2432 14.3491 10.2439 14.3447 10.2434C14.3435 10.2433 14.3416 10.2431 14.3392 10.2428C14.3292 10.2416 14.3179 10.2401 14.3056 10.2381C14.2816 10.2343 14.2572 10.2294 14.2328 10.223L14.7321 8.28637C14.6903 8.27561 14.6525 8.26815 14.6198 8.26294C14.6032 8.2603 14.5887 8.25837 14.5768 8.25694C14.574 8.25661 14.5717 8.25634 14.5702 8.25617C14.5655 8.25564 14.5715 8.25632 14.5744 8.25667C14.5759 8.25684 14.5794 8.25725 14.5838 8.25781C14.5864 8.25815 14.5978 8.2596 14.6123 8.26188C14.6186 8.26287 14.636 8.26564 14.658 8.27016C14.6697 8.27262 14.6989 8.27944 14.7164 8.28398C14.7456 8.2923 14.832 8.32271 14.888 8.34738C15.0337 8.43275 15.4329 9.03135 15.3975 9.58961C15.1971 9.9222 14.7833 10.195 14.6775 10.2251C14.6324 10.2342 14.5625 10.2442 14.5379 10.2465C14.5226 10.2476 14.4969 10.2489 14.4866 10.2493C14.4537 10.2503 14.4272 10.2493 14.4268 10.2493C14.4196 10.2491 14.414 10.2488 14.4119 10.2487C14.4092 10.2486 14.4071 10.2485 14.4061 10.2485C14.4051 10.2484 14.4042 10.2483 14.4039 10.2483C14.4023 10.2482 14.4073 10.2485 14.4127 10.2488C14.4182 10.249 14.4242 10.2493 14.4306 10.2494C14.4435 10.2498 14.457 10.25 14.4713 10.25C14.4998 10.2499 14.5302 10.2489 14.563 10.2468L14.4361 8.25086ZM14.2328 10.2231C14.1716 10.2073 14.1205 10.1857 14.0774 10.1618C14.0329 10.1371 13.986 10.1038 13.9411 10.059L15.3552 8.64461C15.1624 8.45184 14.9353 8.33875 14.732 8.28636L14.2328 10.2231ZM12.8803 11.1194C13.5075 11.7468 14.2737 11.7683 14.6584 11.7438L14.5311 9.74783C14.4504 9.75298 14.3938 9.74813 14.3555 9.73834C14.3265 9.73092 14.3116 9.7223 14.2947 9.7054L12.8803 11.1194ZM14.6583 11.7438C15.0147 11.7211 15.423 11.6292 15.7137 11.567L15.2952 9.61123C14.9447 9.68623 14.7057 9.73671 14.5312 9.74782L14.6583 11.7438ZM12.433 8.28625C12.3708 8.57698 12.2788 8.98523 12.2561 9.3417L14.2521 9.46875C14.2632 9.29423 14.3137 9.05522 14.3887 8.70467L12.433 8.28625ZM12.2562 9.34155C12.2316 9.72627 12.2532 10.4924 12.8805 11.1196L14.2945 9.70518C14.2776 9.6883 14.269 9.67347 14.2616 9.64442C14.2518 9.60611 14.247 9.54957 14.2521 9.46891L12.2562 9.34155ZM13.9411 10.059C13.896 10.0139 13.8627 9.96685 13.8381 9.92245C13.8142 9.87946 13.7929 9.82875 13.7772 9.76832L15.7133 9.26662C15.661 9.06489 15.5484 8.83784 15.3552 8.64461L13.9411 10.059ZM13.7768 9.76659C13.7704 9.74201 13.7655 9.71754 13.7617 9.69334C13.7597 9.68103 13.7582 9.6696 13.757 9.65937C13.7567 9.65694 13.7565 9.65495 13.7563 9.65364C13.7558 9.64894 13.7565 9.65535 13.7568 9.65754C13.7569 9.6589 13.7573 9.66204 13.7578 9.66603C13.7581 9.66847 13.7593 9.67869 13.7613 9.6917C13.7622 9.69748 13.7645 9.71256 13.7682 9.73171C13.7701 9.7416 13.7754 9.76617 13.7789 9.78082C13.785 9.80442 13.8058 9.87186 13.822 9.91515C13.8707 10.0189 14.2479 10.4076 14.6578 10.5386C15.1965 10.4378 15.6704 9.93434 15.7187 9.79176C15.731 9.73792 15.7438 9.65593 15.7465 9.62829C15.7478 9.61168 15.7493 9.58408 15.7497 9.5731C15.7503 9.55221 15.7502 9.53586 15.7501 9.52989C15.75 9.52206 15.7498 9.51577 15.7497 9.51218C15.7495 9.50506 15.7492 9.4995 15.7491 9.49747C15.749 9.49489 15.7489 9.49285 15.7489 9.4919C15.7488 9.49084 15.7488 9.49 15.7488 9.48965C15.7487 9.48808 15.7489 9.49227 15.7491 9.49669C15.7493 9.50112 15.7495 9.50565 15.7496 9.51027C15.7499 9.51947 15.75 9.5278 15.7499 9.53521C15.7499 9.54992 15.7494 9.56012 15.749 9.5652L13.7532 9.43568C13.7511 9.46849 13.7501 9.49901 13.7499 9.52753C13.7499 9.54183 13.7501 9.55544 13.7504 9.56839C13.7506 9.57488 13.7509 9.58091 13.7511 9.58647C13.7514 9.59201 13.7516 9.59697 13.7516 9.59581C13.7516 9.59551 13.7515 9.59472 13.7515 9.5937C13.7514 9.59279 13.7513 9.59079 13.7512 9.58823C13.7511 9.58624 13.7509 9.5807 13.7506 9.5736C13.7505 9.57001 13.7504 9.56374 13.7503 9.55592C13.7502 9.54994 13.75 9.53361 13.7506 9.51271C13.751 9.50174 13.7525 9.47414 13.7538 9.45753C13.7566 9.42989 13.7694 9.34791 13.7816 9.29407C13.83 9.15149 14.3038 8.64806 14.8426 8.54719C15.2525 8.67821 15.6296 9.06689 15.6783 9.17068C15.6945 9.21397 15.7154 9.28141 15.7215 9.30501C15.7249 9.31965 15.7302 9.34422 15.7322 9.35411C15.7359 9.37325 15.7382 9.38833 15.739 9.3941C15.741 9.4071 15.7423 9.4173 15.7426 9.41971C15.743 9.42368 15.7434 9.42679 15.7436 9.42811C15.7438 9.43017 15.7445 9.43635 15.7439 9.43135C15.7437 9.42974 15.7435 9.42735 15.7431 9.42446C15.7417 9.41234 15.7398 9.39774 15.7371 9.38107C15.7319 9.34816 15.7245 9.31024 15.7137 9.26835L13.7768 9.76659ZM15.7492 9.56324C15.7488 9.56945 15.7489 9.56298 15.7524 9.53827C15.7558 9.51429 15.7615 9.4787 15.771 9.42799L13.8047 9.06239C13.7795 9.19771 13.7603 9.32362 13.7531 9.43764L15.7492 9.56324ZM15.771 9.42801C15.7904 9.32343 15.8172 9.19757 15.8555 9.01814L13.8997 8.60008C13.8631 8.77153 13.83 8.92603 13.8047 9.06237L15.771 9.42801ZM19.9586 4.04133C20.1436 4.22629 20.2408 4.3259 20.2948 4.38446C20.3506 4.44491 20.3181 4.4173 20.2807 4.35239L22.0126 3.35219C21.9368 3.22096 21.8476 3.11806 21.7644 3.02792C21.6795 2.93589 21.5554 2.80962 21.3728 2.62709L19.9586 4.04133ZM23.3118 2.60233C23.0682 2.18044 22.6922 1.82506 22.4335 1.56644L21.0193 2.98066C21.3591 3.32044 21.4994 3.46324 21.5797 3.60225L23.3118 2.60233ZM22.4335 6.90892C22.6921 6.65031 23.0682 6.29492 23.3118 5.87301L21.5797 4.87312C21.4994 5.01214 21.3591 5.15491 21.0193 5.49472L22.4335 6.90892ZM20.2806 4.12303C20.3181 4.0581 20.3506 4.03047 20.2948 4.09092C20.2408 4.14947 20.1436 4.24908 19.9586 4.43404L21.3728 5.84828C21.5554 5.66575 21.6795 5.53948 21.7644 5.44744C21.8477 5.3573 21.9368 5.25437 22.0126 5.12311L20.2806 4.12303ZM20.2806 4.35233C20.2397 4.28139 20.2397 4.19397 20.2806 4.12303L22.0126 5.12311C22.329 4.57521 22.329 3.90015 22.0126 3.35225L20.2806 4.35233ZM23.3118 5.87304C23.896 4.86107 23.896 3.6143 23.3118 2.60233L21.5797 3.60225C21.8067 3.99546 21.8067 4.47991 21.5797 4.8731L23.3118 5.87304ZM22.4334 1.56634C22.1749 1.3079 21.8195 0.931734 21.3976 0.688169L20.3977 2.42029C20.5368 2.50057 20.6793 2.64078 21.0194 2.98076L22.4334 1.56634ZM19.6474 3.71916C19.5825 3.68167 19.5549 3.6492 19.6154 3.70507C19.674 3.75915 19.7737 3.85635 19.9586 4.04132L21.3728 2.6271C21.1903 2.44457 21.064 2.32044 20.972 2.2355C20.882 2.15235 20.7791 2.06315 20.6478 1.98736L19.6474 3.71916ZM19.5658 4.04133C19.7508 3.85636 19.8504 3.75916 19.909 3.70506C19.9696 3.64917 19.942 3.68166 19.877 3.71916L18.8766 1.98736C18.7454 2.06316 18.6425 2.15238 18.5524 2.23552C18.4604 2.32045 18.3342 2.44457 18.1516 2.62709L19.5658 4.04133ZM18.1268 0.688246C17.705 0.931796 17.3497 1.30778 17.091 1.56646L18.5052 2.98064C18.845 2.6409 18.9879 2.5005 19.1269 2.42021L18.1268 0.688246ZM21.3976 0.688201C20.3856 0.103933 19.1388 0.103933 18.1268 0.688201L19.1268 2.42026C19.52 2.19325 20.0044 2.19325 20.3976 2.42026L21.3976 0.688201ZM19.8768 3.7193C19.8059 3.76022 19.7185 3.76022 19.6477 3.7193L20.6476 1.98722C20.0997 1.67092 19.4247 1.67092 18.8769 1.98722L19.8768 3.7193ZM16.6509 7.74177C16.6351 7.75757 16.5643 7.82334 16.2681 7.89898L16.7628 9.83682C17.2259 9.71858 17.6895 9.53149 18.0649 9.15623L16.6509 7.74177ZM16.2681 7.89898C16.1191 7.937 15.9499 7.96898 15.726 8.00767L16.0665 9.97847C16.2948 9.93902 16.5313 9.89592 16.7628 9.83682L16.2681 7.89898ZM15.726 8.00767C15.5224 8.04284 15.2461 8.08788 14.9818 8.1444L15.3999 10.1002C15.6143 10.0544 15.8355 10.0184 16.0665 9.97847L15.726 8.00767ZM15.7133 11.567C15.8901 11.5293 16.0686 11.5003 16.3218 11.4566L15.9815 9.48578C15.7574 9.52447 15.5224 9.56271 15.2956 9.61116L15.7133 11.567ZM16.3219 11.4566C16.5543 11.4164 16.8408 11.365 17.1338 11.2903L16.6393 9.35234C16.4283 9.40618 16.2084 9.44656 15.9813 9.48581L16.3219 11.4566ZM17.1339 11.2902C17.7221 11.14 18.4805 10.8619 19.1256 10.2168L17.7114 8.80256C17.426 9.08801 17.0606 9.24477 16.6391 9.35239L17.1339 11.2902ZM15.8555 9.01827C15.9121 8.7538 15.9571 8.47743 15.9923 8.27378L14.0214 7.93362C13.9815 8.16451 13.9456 8.38568 13.8997 8.59995L15.8555 9.01827ZM15.9922 8.27408C16.031 8.04986 16.0629 7.88078 16.1009 7.73202L14.1632 7.23692C14.104 7.46858 14.0609 7.70528 14.0215 7.93332L15.9922 8.27408ZM16.101 7.73175C16.1765 7.43568 16.2423 7.36487 16.2581 7.3491L14.8438 5.935C14.4685 6.31029 14.2813 6.77386 14.1631 7.23719L16.101 7.73175ZM13.7831 4.87429C13.1379 5.51948 12.8599 6.27792 12.7097 6.86599L14.6475 7.36083C14.7552 6.93934 14.9119 6.57392 15.1974 6.28847L13.7831 4.87429ZM12.7097 6.8662C12.6349 7.15921 12.5835 7.4457 12.5433 7.678L14.5141 8.01864C14.5534 7.79158 14.5937 7.57167 14.6476 7.36062L12.7097 6.8662ZM12.5433 7.67813C12.4996 7.93126 12.4706 8.10979 12.4329 8.28659L14.3888 8.70433C14.4372 8.47753 14.4755 8.24248 14.5141 8.01851L12.5433 7.67813Z" fill="#F8FBFC" mask="url(#path-4-inside-1_2437_3262)"/>
</svg>
