<svg width="24" height="25" viewBox="0 0 24 25" fill="none" xmlns="http://www.w3.org/2000/svg">
<path d="M5.15837 11.991C5.08489 13.387 5.16936 14.873 3.92213 15.8084C3.34164 16.2438 3 16.927 3 17.6527C3 18.6508 3.7818 19.5 4.8 19.5H19.2C20.2182 19.5 21 18.6508 21 17.6527C21 16.927 20.6584 16.2438 20.0779 15.8084C18.8306 14.873 18.9151 13.387 18.8416 11.991C18.6501 8.35223 15.6438 5.5 12 5.5C8.35617 5.5 5.34988 8.35222 5.15837 11.991Z" stroke="#0A0A0A" stroke-width="1.5" stroke-linecap="round" stroke-linejoin="round"/>
<path d="M10.5 3.625C10.5 4.45343 11.1716 5.5 12 5.5C12.8284 5.5 13.5 4.45343 13.5 3.625C13.5 2.79657 12.8284 2.5 12 2.5C11.1716 2.5 10.5 2.79657 10.5 3.625Z" stroke="#0A0A0A" stroke-width="1.5"/>
<path d="M15 19.5C15 21.1569 13.6569 22.5 12 22.5C10.3431 22.5 9 21.1569 9 19.5" stroke="#0A0A0A" stroke-width="1.5" stroke-linecap="round" stroke-linejoin="round"/>
</svg>
